<svg height="60" viewBox="0 0 60 60" width="60" xmlns="http://www.w3.org/2000/svg"><g fill="none" fill-rule="evenodd"><circle cx="30" cy="30" fill="#185126" r="30"/><g transform="translate(17 12)"><path d="m0 32.3374432h12.4494318v-19.8392046h-12.4494318z" fill="#1c9853"/><path d="m12.4494318 32.3374432h12.4494318v-19.8392046h-12.4494318z" fill="#1c9853"/><path d="m7.37613636 32.3374432h10.14772724v-7.6698864h-10.14772724z" fill="#235028"/><g fill="#a3b69c"><path d="m10.6110795 5.07380682c0 2.80227273-2.27159086 5.07386368-5.07386359 5.07386368s-5.07386364-2.27159095-5.07386364-5.07386368 2.27159091-5.07386364 5.07386364-5.07386364 5.07386359 2.27159091 5.07386359 5.07386364"/><path d="m23.7480682 5.07380682c0 2.80227273-2.2715909 5.07386368-5.0738637 5.07386368-2.8022727 0-5.0738636-2.27159095-5.0738636-5.07386368s2.2715909-5.07386364 5.0738636-5.07386364c2.8022728 0 5.0738637 2.27159091 5.0738637 5.07386364"/><path d="m16.6419318 17.9691477c0 2.3153409-1.8772727 4.1926137-4.1926136 4.1926137s-4.19204547-1.8772728-4.19204547-4.1926137 1.87670457-4.1920454 4.19204547-4.1920454 4.1926136 1.8767045 4.1926136 4.1920454"/></g></g></g></svg>