<?xml version="1.0" encoding="UTF-8"?>
<svg width="83px" height="60px" viewBox="0 0 83 60" version="1.1" xmlns="http://www.w3.org/2000/svg" xmlns:xlink="http://www.w3.org/1999/xlink">
    <!-- Generator: sketchtool 50.2 (55047) - http://www.bohemiancoding.com/sketch -->
    <title>69320D16-E6E3-4443-B63C-30B06AC430FC</title>
    <desc>Created with sketchtool.</desc>
    <defs>
        <rect id="path-1" x="0" y="0" width="160" height="60"></rect>
    </defs>
    <g id="01" stroke="none" stroke-width="1" fill="none" fill-rule="evenodd">
        <g id="Homepage-" transform="translate(-498.000000, -1821.000000)">
            <g id="Points-of-Parity" transform="translate(60.000000, 1026.000000)">
                <g id="Press-Logos" transform="translate(200.000000, 795.000000)">
                    <g id="Fast-Company" transform="translate(200.000000, 0.000000)">
                        <mask id="mask-2" fill="white">
                            <use xlink:href="#path-1"></use>
                        </mask>
                        <g id="Mask"></g>
                        <path d="M56.3926143,47.2675899 C56.3926143,49.5011732 56.139146,56.5523558 56.139146,56.5523558 C56.139146,57.9625923 56.6460827,58.5494821 58.0376067,58.5494821 L58.0376067,59.1380729 L52.4698092,59.1380729 L52.4698092,58.66686 C53.8613333,58.66686 54.6217383,58.0799703 54.6217383,56.6697337 L55.1269738,45.1530857 C54.7476219,44.2123609 54.36827,43.977605 53.2285131,43.8602271 L53.2285131,43.2716362 L57.4047865,43.2716362 L61.8362294,54.0840166 L66.2659711,43.2716362 L70.0628926,43.2716362 L70.0628926,43.8602271 C69.0507204,43.8602271 68.4179002,44.3297389 68.4179002,45.3878416 L68.9231357,56.5523558 C68.9231357,58.1973482 69.3024876,58.66686 70.6957129,58.66686 L70.6957129,59.2554509 L64.3675104,59.2554509 L64.3675104,58.66686 C65.6331509,58.66686 66.1383864,58.3147262 66.1383864,56.5523558 C66.1383864,56.5523558 65.8866192,48.7952043 65.7590345,47.3849678 L62.7208168,55.1421193 C62.3414649,56.0811429 61.962113,57.2566235 61.5810599,58.4321041 L60.5705889,58.5511832 C60.3154194,57.7278364 59.6843003,56.2002219 59.6843003,56.2002219 C59.6843003,56.2002219 57.2789029,49.5011732 56.3926143,47.269291 L56.3926143,47.2675899 Z M51.41681,58.1207974 C51.037458,58.0017183 50.7839897,58.0017183 50.4046378,58.0017183 C49.7718175,58.0017183 48.6320606,58.3555533 47.2405365,58.3555533 C41.9245062,58.3555533 38,55.4177023 38,49.8941341 C38,45.3095896 41.6710379,41.6674709 47.3664201,41.6674709 C48.7460154,41.6725335 50.1148409,41.9106401 51.4151088,42.3717386 L52.0496302,41.7848488 L52.5565669,41.7848488 C52.4289821,42.6064945 52.1755138,45.3095896 52.1755138,45.3095896 L51.6702783,45.3095896 C51.2892252,43.6645972 50.4046378,42.6064945 47.6198885,42.6064945 C44.2006178,42.6064945 41.0365165,45.0748337 41.0365165,49.7767562 C41.0365165,55.0638673 44.2006178,57.2974506 47.7457721,57.2974506 C50.0252859,57.2974506 51.41681,56.1236711 52.3030985,54.5943555 L52.9359188,54.8291114 L51.41681,58.1207974 Z M96.8880069,45.6634246 L96.8880069,54.8291114 C96.8880069,56.8279388 97.3932424,57.1800726 98.6588829,57.1800726 L98.6588829,57.7669624 L89.0389944,57.7669624 L89.0389944,57.1800726 C89.7993994,57.1800726 90.4322196,56.9453167 90.4322196,56.4741038 C90.4322196,56.12197 90.3046349,55.6524582 90.1787513,55.0638673 L89.4200475,52.8319851 L83.9764324,52.8319851 C83.8505488,53.184119 82.9642603,55.6524582 82.9642603,56.3567259 C82.9642603,56.9453167 83.7229641,57.0626947 84.2299008,57.0626947 L84.2299008,57.6495844 L79.800159,57.6495844 L79.800159,57.1800726 C80.5588629,57.1800726 81.3192678,57.0609936 81.8245034,55.5350802 L85.8748932,43.0777074 C85.623126,42.4891165 85.2420729,42.3717386 84.7351363,42.3717386 L84.7351363,41.7848488 L88.4061742,41.7848488 L92.837617,54.7134346 C93.216969,56.12197 93.5963209,56.7105608 94.3550247,57.0609936 C95.368898,56.7105608 95.6206652,56.4741038 95.6206652,54.7134346 L95.6206652,43.7819751 C94.8619614,42.8429515 94.8619614,42.2543606 93.4704373,42.2543606 L93.4704373,41.6674709 L97.6467107,41.6674709 L104.48185,52.4798513 L104.48185,44.253188 C104.48185,42.6064945 104.102498,42.2543606 102.709273,42.2543606 L102.709273,41.6674709 L111.822225,41.6674709 L111.822225,42.2543606 C111.189404,42.2543606 110.810052,42.4891165 110.810052,42.9603295 C110.810052,43.3124633 110.935936,43.6645972 111.189404,44.134109 L113.84827,49.4246223 L116.379551,44.370566 C116.758903,43.6645972 116.884787,43.3124633 116.884787,42.9586283 C116.884787,42.4891165 116.505435,42.2543606 115.872614,42.2543606 L115.872614,41.6674709 L120.176472,41.6674709 L120.176472,42.2543606 C119.1643,42.2543606 118.403895,43.1950854 118.024543,44.253188 L114.734559,50.5984018 L114.734559,54.8291114 C114.734559,56.5931829 115.239794,57.0626947 116.505435,57.0626947 L116.505435,57.6495844 L110.303116,57.6495844 L110.303116,57.1800726 C111.568756,57.1800726 112.075693,56.7105608 112.075693,54.9464893 L112.075693,51.4217486 L108.53224,44.370566 C107.899419,42.9586283 107.645951,42.7255736 107.266599,42.4891165 C106.506194,42.8429515 106.252726,43.3124633 106.252726,44.4879439 L106.252726,56.1236711 C106.252726,56.1236711 106.380311,57.0626947 106.380311,58.1207974 L105.368138,58.2381753 L96.8880069,45.6634246 Z M86.6352982,44.9574557 L84.3557844,51.8912604 L89.0389944,51.8912604 L86.6352982,44.9574557 Z M77.4577034,53.2623709 L76.1920629,53.2623709 L76.1920629,56.5523558 C76.1920629,58.1973482 76.6972984,58.5494821 78.0905237,58.5494821 L78.0905237,59.1380729 L71.7623212,59.1380729 L71.7623212,58.66686 C73.0279617,58.66686 73.5331972,58.1973482 73.5331972,56.5523558 L73.5331972,45.8573534 C73.5331972,44.2123609 73.0279617,43.8602271 71.7623212,43.8602271 L71.7623212,43.2716362 L76.4455312,43.2716362 C81.0011566,43.2716362 83.6583212,44.5644948 83.6583212,48.0909367 C83.9134906,51.7330553 80.6218047,53.2623709 77.4577034,53.2623709 Z M76.6972984,44.3297389 L76.3179465,44.3297389 L76.3179465,52.0868903 L77.0783515,52.0868903 C79.7355161,52.0868903 81.1270402,50.9114097 81.1270402,48.0892355 C81.1270402,45.2704636 79.8613997,44.3297389 76.6972984,44.3297389 Z M48.0128494,54.9839142 C44.8487482,54.9839142 42.8244038,52.9867879 42.8244038,49.931559 C42.8244038,47.1093848 44.9746318,44.8775026 48.0128494,44.8775026 C50.9234823,44.8775026 53.201295,46.9920069 53.201295,49.9298579 C53.201295,52.7503309 50.9234823,54.9839142 48.0128494,54.9839142 Z M48.0128494,45.9339042 C45.8609203,45.9339042 45.1005154,47.8153536 45.1005154,50.0472358 C45.1005154,52.0460632 45.7350368,54.1605674 48.0128494,54.1605674 C50.1647785,54.1605674 50.7975987,52.1634412 50.7975987,50.0472358 C50.7975987,47.8153536 49.9113102,45.9339042 48.0128494,45.9339042 Z M119.620203,7.82519663 L118.352861,7.82519663 C118.225277,4.47226998 117.083819,3.47881024 114.41985,3.47881024 L109.34538,3.47881024 L109.34538,30.6849775 C109.34538,35.1572475 110.233369,36.0265248 113.27669,36.0265248 L113.27669,37.3942331 L99.9568448,37.3942331 L99.9568448,36.0265248 C103.001867,36.0265248 103.889857,35.1572475 103.889857,30.4366126 L103.889857,3.47881024 L98.8136857,3.47881024 C95.3893116,3.47881024 94.8806738,4.34808752 93.9926841,7.82689775 L92.7253425,7.82689775 L93.6133322,-9.23705556e-14 L94.5013219,0.124182468 C94.8806738,0.993459745 95.5151952,0.993459745 97.6722277,0.993459745 L114.799201,0.993459745 C117.971808,0.993459745 118.732213,0.993459745 119.366735,-9.23705556e-14 L120.382309,-9.23705556e-14 L119.620203,7.82519663 Z M81.6697006,38.4625425 C79.0669721,38.4625425 77.1157763,38.088294 75.6834251,37.589863 C74.2510739,37.2156145 73.0806967,36.7188846 72.560151,36.3463372 C71.7776313,37.0931331 71.2587868,37.9624104 71.2587868,37.9624104 L70.2176954,37.589863 L71.1277998,29.3751077 L72.429164,29.4992901 C73.2116837,33.3591534 75.943698,36.0962711 81.5404147,36.0962711 C85.9650531,36.0962711 88.8280543,32.6123575 88.8280543,28.7524942 C88.8280543,25.641128 87.5266901,24.0233536 83.2313376,20.9102863 C81.8006875,20.0393079 80.4993233,19.2942131 79.4582319,18.4215335 C75.4231523,15.9327808 72.9497097,13.193962 72.9497097,8.71318633 C72.9497097,3.48561476 77.505335,-9.23705556e-14 83.4933116,-9.23705556e-14 C87.0061444,-9.23705556e-14 89.0900283,0.995160875 89.8708468,1.36940941 L91.1722111,-9.23705556e-14 L92.0823155,0.124182468 L91.1722111,7.59214186 L89.8708468,7.46795939 C89.8708468,3.98234463 87.6576771,2.48875275 84.0138573,2.48875275 C80.4993233,2.48875275 78.0258807,4.2324107 78.0258807,7.46795939 C78.0258807,10.4551431 80.3683363,12.3229836 83.1020518,14.0649404 C84.534403,14.9359188 85.7047802,15.6827147 86.7458716,16.3053282 C93.125108,20.6619213 94.5540569,23.4007402 94.5540569,27.6331509 C94.4247711,33.9800658 89.479587,38.4625425 81.6697006,38.4625425 Z M63.1120766,7.9953096 L61.7035413,7.9953096 C61.7035413,4.9196671 60.2950059,3.69145145 57.3486492,3.69145145 L49.2784899,3.69145145 L49.2784899,17.220536 L54.4022926,17.220536 C57.0917786,17.220536 57.6038187,15.8681379 57.988274,13.653267 L59.2692247,13.653267 L59.2692247,23.2476385 L57.988274,23.2476385 C57.6038187,20.6653236 57.0917786,19.6803695 54.2747079,19.6803695 L49.2784899,19.6803695 L49.2784899,31.2429481 C49.2784899,35.5468062 50.30257,36.0401338 53.2489266,36.0401338 L53.2489266,37.3942331 L39.6705094,37.3942331 L39.6705094,36.0401338 C43.128906,36.0401338 43.6409461,35.1793622 43.6409461,31.2429481 L43.6409461,5.90462119 C43.6409461,3.44478764 42.616866,2.45983355 39.6705094,2.45983355 L39.6705094,1.22991677 L58.2451446,1.22991677 C61.4466707,1.22991677 62.2155813,1.10743544 62.7276213,-9.23705556e-14 L64.0102731,-9.23705556e-14 L63.1120766,7.9953096 Z M69.1715006,27.6671735 L69.1715006,26.4593714 C70.9117563,26.4593714 71.2860049,25.9762505 71.2860049,25.4948308 C71.2860049,24.7701496 71.1618224,24.2870287 70.9117563,23.8039079 C70.9117563,23.8039079 70.5392089,22.4770267 70.1666615,21.3883037 L63.4489003,21.3883037 L62.7004033,23.5623475 C62.5779219,24.0454683 62.329557,24.5285892 62.329557,25.2532704 C62.329557,25.9762505 63.0746518,26.4610725 64.0698127,26.4610725 L64.0698127,27.6671735 L57.3537526,27.6671735 L57.3537526,26.4593714 C59.0957094,26.4593714 59.8408042,25.9762505 60.4634177,24.0437672 L65.6858859,8.83566767 C65.5634045,8.10928529 64.9407911,7.62786558 63.9456302,7.62786558 L63.9456302,6.42006349 L69.5423469,6.42006349 C74.0197203,19.4575215 75.2632461,22.8376662 75.2632461,22.8376662 C76.1342245,25.7346901 77.0052029,26.5801516 78.3729112,26.5801516 L78.3729112,27.7879537 L69.1697995,27.7879537 L69.1697995,27.6671735 L69.1715006,27.6671735 Z M66.684449,11.3703509 L64.0715138,19.5783017 L69.4198656,19.5783017 L66.684449,11.3703509 Z" id="Combined-Shape" fill="#AAA9AA" fill-rule="nonzero" mask="url(#mask-2)"></path>
                    </g>
                </g>
            </g>
        </g>
    </g>
</svg>