<?xml version="1.0" encoding="UTF-8"?>
<svg width="111px" height="29px" viewBox="0 0 111 29" version="1.1" xmlns="http://www.w3.org/2000/svg" xmlns:xlink="http://www.w3.org/1999/xlink">
    <!-- Generator: sketchtool 50.2 (55047) - http://www.bohemiancoding.com/sketch -->
    <title>3EAEB05A-8B35-41E7-8155-44EB8394D99C</title>
    <desc>Created with sketchtool.</desc>
    <defs>
        <rect id="path-1" x="0" y="0" width="160" height="60"></rect>
    </defs>
    <g id="01" stroke="none" stroke-width="1" fill="none" fill-rule="evenodd">
        <g id="Homepage-" transform="translate(-885.000000, -1837.000000)">
            <g id="Points-of-Parity" transform="translate(60.000000, 1026.000000)">
                <g id="Press-Logos" transform="translate(200.000000, 795.000000)">
                    <g id="Fast-Copy-3" transform="translate(600.000000, 0.000000)">
                        <mask id="mask-2" fill="white">
                            <use xlink:href="#path-1"></use>
                        </mask>
                        <g id="Mask"></g>
                        <path d="M52.3988701,44.770888 C50.476504,44.4911111 48.7951472,43.6773877 47.5112178,42.4055088 C46.4402328,41.3446716 45.7458248,40.1780757 45.2339973,38.5796451 C44.4347819,36.0839306 44.4345441,32.8752568 45.2332045,30.4304397 C46.0072882,28.0611758 47.7501658,25.9988023 49.8831772,24.9280552 C52.8371264,23.4452139 56.994695,23.5383671 59.730626,25.1486896 C62.1928053,26.5979165 63.6842087,29.1730689 64.0992362,32.6913287 C64.2259247,33.7654848 64.143712,36.0344603 63.9441658,36.9709875 C63.1274297,40.804462 60.7488902,43.4822812 57.2640863,44.4915075 C56.8885399,44.6001995 56.306233,44.7275222 55.9700885,44.7742178 C55.2587147,44.8732377 53.0874114,44.8711764 52.3988701,44.770888 Z M86.447852,44.7699367 C85.6613214,44.6901816 83.2578881,44.2902172 82.4183196,44.0993125 L81.837519,43.9672331 L81.8827875,40.8655864 C81.9918759,33.3978664 82.0055913,29.3211628 81.9349533,25.3565602 C81.8658217,21.4728225 81.8456848,21.0622347 81.6958468,20.4876971 C81.506052,19.7597539 81.2321417,19.2520489 80.902736,19.0174612 C80.7747791,18.9263692 80.4270598,18.7972231 80.1300793,18.7304699 C79.1429719,18.5087255 79.1965647,18.5442427 79.170244,18.0939359 C79.1551016,17.8345338 79.1831665,17.6631318 79.2495233,17.6105696 C79.3384748,17.5400109 87.435118,15.9956489 87.6930138,16.0000092 C87.76714,16.0012777 87.7776049,17.0365077 87.7396301,20.5998774 C87.7126751,23.1288892 87.7091868,25.1980807 87.73194,25.1980807 C87.7546139,25.1980807 88.0504845,25.0699652 88.3894037,24.9133885 C89.4109184,24.4414384 90.3524402,24.2366598 91.71993,24.1889336 C92.6302949,24.1572219 93.0521405,24.177121 93.5191752,24.2736833 C96.5732543,24.9056191 98.8333505,27.4053768 99.6231315,31.0250349 C99.8291786,31.9692522 99.9057625,34.31608 99.7690849,35.4914759 C99.6524649,36.4933293 99.3198087,37.8432191 98.973675,38.7191768 C97.6673888,42.02473 94.8649425,44.1812081 91.1470573,44.7416339 C90.2906815,44.8706215 87.6014461,44.8868737 86.447852,44.7699367 Z M109.24067,44.7306141 C105.307541,44.0213016 102.49471,41.2320949 101.575624,37.1301804 C101.457418,36.6026555 101.405173,36.0121828 101.375523,34.8700842 C101.328589,33.0632282 101.475573,31.941663 101.941894,30.5480902 C102.837276,27.8724116 104.44189,25.9763662 106.772862,24.8399758 C109.233139,23.6405582 112.596804,23.5619924 114.774132,24.6531143 C117.225609,25.8816274 118.668018,28.3346103 119.033971,31.897108 C119.083283,32.3768274 119.111744,32.9475596 119.097474,33.1655778 L119.071391,33.5619747 L113.204718,33.5822702 L107.338045,33.602645 L107.360322,34.2957845 C107.412171,35.9015088 107.757353,37.3218779 108.395948,38.5565748 C108.68619,39.1178727 108.91721,39.4238118 109.478508,39.9904215 C110.746344,41.2706247 112.007679,41.7661207 113.997432,41.7661207 C115.440079,41.7661207 116.477529,41.4782573 117.562625,40.7767935 C117.866503,40.5802599 118.174504,40.4195607 118.246886,40.4195607 C118.4125,40.4195607 118.793834,40.9103792 118.793834,41.1236407 C118.793834,41.4731042 117.656334,42.5995847 116.546898,43.3490126 C115.638277,43.9627934 114.197216,44.5187004 112.947694,44.7371943 C112.072608,44.8904413 110.106718,44.8868737 109.24067,44.7306141 Z M125.096544,44.8075944 C123.684102,44.6561708 121.436215,44.1640837 120.687739,43.8422888 L120.322182,43.6853156 L120.272315,41.8740992 C120.244884,40.8780332 120.213331,39.5460606 120.202073,38.9143626 L120.181619,37.7658424 L120.400747,37.6607972 C120.521252,37.6030819 120.764402,37.5490926 120.941195,37.5408476 L121.262514,37.525943 L121.536266,38.1998177 C122.604397,40.8287215 123.85709,42.2461573 125.493258,42.6772785 C126.117424,42.8418625 127.287746,42.8432895 127.749786,42.6800533 C129.044101,42.2232456 129.753889,41.2431147 129.760073,39.9043241 C129.767367,38.3187367 128.895849,37.5569413 125.603297,36.2707921 C123.563439,35.4739552 122.851828,35.0639223 122.004569,34.1966853 C121.090557,33.2611095 120.651904,32.1963083 120.569533,30.7130706 C120.470038,28.9208812 121.03086,27.409975 122.273881,26.1225574 C123.524672,24.8268947 125.148472,24.1246381 127.360525,23.9227928 C129.308419,23.7450485 132.29844,24.1581732 133.865079,24.8215037 L134.150882,24.942484 L134.201858,26.5567705 C134.229923,27.4446201 134.258939,28.634762 134.266312,29.2016095 L134.27979,30.232162 L133.895919,30.3747063 C133.289115,30.6000182 133.249158,30.5717948 132.911587,29.6773649 C131.965308,27.1702342 130.865941,25.9839771 129.152952,25.6215911 C128.109001,25.4007188 127.236928,25.6381605 126.60301,26.3158405 C126.108545,26.8444753 125.915579,27.3139677 125.868883,28.1023218 C125.818144,28.9564777 125.970836,29.4182007 126.492733,29.98925 C127.135926,30.6930922 128.189787,31.30061 130.289184,32.1779155 C132.860531,33.2523887 134.0873,34.1645771 134.754277,35.497739 C135.187459,36.3636282 135.310105,37.0551822 135.26658,38.386362 C135.233838,39.385282 135.201888,39.5905363 134.974594,40.2611605 C134.233649,42.4476854 132.561172,43.8872402 129.977299,44.5622247 C129.102134,44.7907871 128.977189,44.8025205 127.236928,44.8217061 C126.234123,44.8324881 125.270879,44.8263043 125.096544,44.8075944 Z M25.1053623,44.3311254 C25.0394811,44.3044875 25.0062631,44.1069233 25.0062631,43.7412076 C25.0062631,43.0842195 24.9644828,43.1136321 26.2350933,42.8779346 C27.2097538,42.6970983 27.5583452,42.5122188 27.9887529,41.9479876 C28.8231682,40.853853 29.0035288,38.7474003 29.0054315,30.0737618 C29.0071756,21.9281239 28.8502025,20.2145797 27.9872466,18.9556233 C27.6043272,18.3971002 26.9590724,18.0937773 25.8782568,17.9643934 L25.0458235,17.8647392 L25.022991,17.214807 L25,16.564954 L25.2608291,16.5184963 C25.4043248,16.4929683 30.4438763,16.4821863 36.4599911,16.4944746 L47.3984033,16.51699 L47.4496177,16.8341074 C47.4778412,17.008522 47.5241403,18.7975403 47.5525223,20.8096506 L47.6040539,24.4680763 L47.0401398,24.639399 C46.1912163,24.8972155 46.1962902,24.9003867 45.8144015,23.8898919 C44.876368,21.4078134 43.8007056,19.9776136 42.3288048,19.2553786 C41.3136325,18.7572663 40.8442987,18.6970933 37.9774775,18.6970933 L35.4825558,18.6970933 L35.4395071,19.11331 C35.3588007,19.8938153 35.2315573,24.914657 35.2324294,27.2790848 L35.2333015,29.637646 L35.9666356,29.6334442 C36.370009,29.6311451 37.1653396,29.6014946 37.7340898,29.5674837 C38.5889592,29.5163486 38.8430496,29.4710008 39.2007581,29.3053862 C40.0795699,28.8985244 40.6774156,28.0031433 41.0437656,26.5451957 L41.2328469,25.7925174 L41.8799251,25.7694471 L42.5270033,25.7463768 L42.5270033,35.2728234 L41.8796872,35.2497531 L41.2323712,35.2266828 L41.0486016,34.4735288 C40.7034192,33.0583921 40.0389789,32.0453604 39.2179617,31.6821816 C38.8387685,31.5145057 37.9005765,31.4191327 36.0855547,31.3639542 L35.2333015,31.3379506 L35.2333015,33.1274445 C35.2333015,35.0773998 35.3405664,37.7154207 35.4779576,39.1471268 C35.6694965,41.1430642 36.17958,42.2458402 37.0954945,42.6450118 C37.2703848,42.7211993 37.8238341,42.8448751 38.3251968,42.9200319 C38.8266388,42.9951095 39.2993817,43.0888177 39.3756484,43.1282988 C39.5691693,43.2281908 39.5805856,44.2619145 39.3890466,44.3353272 C39.2390501,44.3930426 25.2482237,44.3886822 25.1053623,44.3311254 Z M64.1862057,44.3160623 C64.1139029,44.2700803 64.0902777,44.0871828 64.1069263,43.7025985 L64.1307101,43.1547781 L64.4081879,43.0957943 C64.5608007,43.0632897 64.8886209,42.998677 65.1366067,42.9523779 C65.9042689,42.8089615 66.3453793,42.3923484 66.5936822,41.5761674 C66.7959239,40.9114099 66.8850339,38.784503 66.8896321,34.5133271 C66.8953402,29.2896888 66.7864897,28.0560226 66.2583305,27.3567786 C65.9720527,26.9777439 65.7656885,26.8700033 65.0710427,26.7366554 C64.7282387,26.6708535 64.3675176,26.6002949 64.269449,26.5798408 C64.1105732,26.5467813 64.0910705,26.4950119 64.0910705,26.1064637 C64.0910705,25.7286975 64.1149335,25.660438 64.269449,25.5968559 C64.5066529,25.4993423 72.3605427,23.9294523 72.6114619,23.9294523 L72.8072027,23.9294523 L72.7688314,25.0988229 C72.7476639,25.7419372 72.7139701,26.6784643 72.6938332,27.1799063 L72.6572061,28.091619 L72.9417397,27.578523 C73.8525804,25.936013 74.8740158,24.9163218 76.2323092,24.2938995 C76.9779316,23.9521262 77.4754889,23.8501729 78.3966359,23.8501729 C79.4891056,23.8501729 80.5813374,24.2066129 80.5813374,24.5632115 C80.5813374,24.8029523 78.6565137,29.8888823 78.5503586,29.9295526 C78.4985892,29.9493725 78.1227257,29.8057182 77.7151505,29.6100568 C76.8651171,29.2021644 76.0677252,29.0027768 75.2936415,29.0044417 C74.3296043,29.0065029 73.2527527,29.3615952 72.8276567,29.8176102 C72.6457899,30.0126374 72.6449178,30.0243707 72.5997286,32.937174 C72.555015,35.8217538 72.6511016,39.3403306 72.8133072,40.7554673 C72.9514911,41.9610687 73.271859,42.554554 73.9334453,42.8310012 C74.1541591,42.9231238 75.5505859,43.1145042 76.0062837,43.1149799 C76.0408495,43.1149799 76.0586081,43.3915063 76.0459234,43.729395 L76.0227738,44.3438101 L70.1561006,44.3626786 C66.9292718,44.3732227 64.2428904,44.352293 64.1862057,44.3160623 Z M89.6252105,43.1933079 C90.2011751,43.0839816 90.6485486,42.854785 91.1289816,42.4227917 C92.3329973,41.3404698 93.2382091,39.1055844 93.5942528,36.3366732 C93.7392547,35.2089242 93.719752,32.6391628 93.5590527,31.6978789 C93.124364,29.1521391 92.1901359,27.4789481 90.8274029,26.805232 C90.262141,26.5257723 90.1750129,26.506111 89.5043888,26.506111 C89.0248279,26.506111 88.6123373,26.5574047 88.2615261,26.660785 L87.7364589,26.8154591 L87.6977705,29.7130407 C87.6480624,33.4247421 87.7688049,42.717156 87.8702032,42.9837725 C87.9348159,43.153906 88.006088,43.1900574 88.3270902,43.2152683 C89.0825433,43.2746485 89.2074875,43.2724287 89.6252105,43.1933079 Z M53.5513542,43.3482991 C54.0761837,43.5862957 55.0365739,43.5731353 55.5793997,43.3202342 C57.0770663,42.6228928 57.8800077,40.6162528 58.1417882,36.9164433 C58.5066318,31.7606682 57.6611966,27.4573048 55.9861029,25.9440203 C55.2319183,25.2626141 54.0589007,25.039522 53.2124349,25.4165746 C51.9775795,25.9666149 51.184548,27.5949338 50.8090809,30.3511603 C50.5417509,32.3138796 50.5694987,36.3193903 50.8629116,38.1205383 C51.3256653,40.9618315 52.2491114,42.7575885 53.5513542,43.3482991 Z M111.729884,31.8082358 L113.109186,31.7602718 L113.059478,30.7804581 C112.884429,27.3255425 112.038915,25.4374251 110.667619,25.4390107 C109.177247,25.4406756 107.986233,27.3566993 107.491054,30.549438 C107.430167,30.9418709 107.379746,31.4072407 107.378953,31.5836373 L107.377526,31.9043224 L108.864014,31.8803007 C109.681622,31.8669025 110.971259,31.8345565 111.729884,31.8082358 Z" id="Forbes" fill="#AAA9AA" fill-rule="nonzero" mask="url(#mask-2)"></path>
                    </g>
                </g>
            </g>
        </g>
    </g>
</svg>