<svg height="16" viewBox="0 0 16 16" width="16" xmlns="http://www.w3.org/2000/svg"><path d="m110.001785 5.89693252c-2.270162 0-4.101283 1.83112102-4.101283 4.10128276 0 2.27016172 1.831121 4.10128272 4.101283 4.10128272 2.270161 0 4.101282-1.831121 4.101282-4.10128272 0-2.27016174-1.831121-4.10128276-4.101282-4.10128276zm0 6.76765198c-1.467039 0-2.666369-1.1957613-2.666369-2.66636922s1.195761-2.66636921 2.666369-2.66636921 2.666369 1.19576129 2.666369 2.66636921-1.199331 2.66636922-2.666369 2.66636922zm5.225655-6.93541551c0 .53184607-.428332.95660904-.956609.95660904-.531846 0-.956609-.42833241-.956609-.95660904s.428332-.95660903.956609-.95660903.956609.4283324.956609.95660903zm2.716341.97088678c-.06068-1.28142777-.353374-2.41650864-1.292136-3.35170106-.935192-.93519241-2.070273-1.22788622-3.351701-1.29213608-1.320691-.07495817-5.279197-.07495817-6.599888 0-1.277859.06068042-2.412939.35337423-3.351701 1.28856665-.938762.93519241-1.227887 2.07027328-1.292136 3.35170106-.074959 1.32069157-.074959 5.27919686 0 6.59988846.06068 1.2814278.353374 2.4165086 1.292136 3.3517011.938762.9351924 2.070273 1.2278862 3.351701 1.292136 1.320691.0749582 5.279197.0749582 6.599888 0 1.281428-.0606804 2.416509-.3533742 3.351701-1.292136.935193-.9351925 1.227887-2.0702733 1.292136-3.3517011.074959-1.3206916.074959-5.27562745 0-6.59631903zm-1.70619 8.01338543c-.278416.6996096-.817401 1.2385945-1.52058 1.52058-1.052984.4176241-3.55159.3212493-4.715226.3212493-1.163637 0-3.665812.0928054-4.715226-.3212493-.69961-.2784161-1.238595-.817401-1.52058-1.52058-.417624-1.0529839-.321249-3.5515896-.321249-4.71522592 0-1.16363636-.092806-3.66581149.321249-4.71522588.278416-.69960959.817401-1.23859453 1.52058-1.52058003 1.052984-.41762409 3.551589-.3212493 4.715226-.3212493 1.163636 0 3.665811-.09280536 4.715226.3212493.699609.27841606 1.238594.817401 1.52058 1.52058003.417624 1.05298383.321249 3.55158952.321249 4.71522588 0 1.16363632.096375 3.66581152-.321249 4.71522592z" fill="#3eae5f" transform="translate(-102 -2)"/></svg>