<svg height="17" viewBox="0 0 13 17" width="13" xmlns="http://www.w3.org/2000/svg"><path d="m185.866654 2c-3.453523 0-6.866654 2.3023486-6.866654 6.02851803 0 2.36966877 1.332939 3.71607147 2.14078 3.71607147.333235 0 .525097-.9290179.525097-1.1915664 0-.3130387-.797743-.97950798-.797743-2.28215258 0-2.7062694 2.059996-4.62489323 4.725873-4.62489323 2.292251 0 3.988718 1.3026446 3.988718 3.69587537 0 1.78734957-.716959 5.13989224-3.039504 5.13989224-.838136 0-1.555095-.6058812-1.555095-1.4743109 0-1.27235056.888626-2.50430902.888626-3.81705164 0-2.22829645-3.160681-1.82437564-3.160681.86842973 0 .56548913.070687 1.19156638.323137 1.70656541-.464509 1.999408-1.413723 4.9783239-1.413723 7.0383201 0 .6361752.090882 1.2622525.151471 1.8984277.114444.1279083.057222.1144443.232254.0504901 1.696467-2.3225446 1.635879-2.7769555 2.403329-5.8164596.414019.7876456 1.484409 1.2117624 2.332642 1.2117624 3.5747 0 5.180285-3.4838169 5.180285-6.62430117 0-3.34244468-2.888034-5.52361703-6.058812-5.52361703z" fill="#3eae5f" transform="translate(-179 -2)"/></svg>