<?xml version="1.0" encoding="UTF-8"?>
<svg width="94px" height="60px" viewBox="0 0 94 60" version="1.1" xmlns="http://www.w3.org/2000/svg" xmlns:xlink="http://www.w3.org/1999/xlink">
    <!-- Generator: sketchtool 50.2 (55047) - http://www.bohemiancoding.com/sketch -->
    <title>BA27F256-24D0-443F-B193-39734AF4CB44</title>
    <desc>Created with sketchtool.</desc>
    <defs>
        <rect id="path-1" x="0" y="0" width="160" height="60"></rect>
    </defs>
    <g id="01" stroke="none" stroke-width="1" fill="none" fill-rule="evenodd">
        <g id="Homepage-" transform="translate(-693.000000, -1821.000000)">
            <g id="Points-of-Parity" transform="translate(60.000000, 1026.000000)">
                <g id="Press-Logos" transform="translate(200.000000, 795.000000)">
                    <g id="Refinery-29" transform="translate(400.000000, 0.000000)">
                        <mask id="mask-2" fill="white">
                            <use xlink:href="#path-1"></use>
                        </mask>
                        <g id="Mask"></g>
                        <path d="M79.8942598,0.145015106 C90.5166163,0.145015106 99.163142,8.7734139 99.163142,19.3957704 C99.163142,30.0362538 90.5166163,38.6827795 79.8942598,38.6827795 C69.2719033,38.6827795 60.6253776,30.0362538 60.6253776,19.4138973 C60.6253776,8.79154079 69.2719033,0.145015106 79.8942598,0.145015106 Z M79.8942598,36.3987915 C89.265861,36.3987915 96.8791541,28.7673716 96.8791541,19.4138973 C96.8791541,10.0422961 89.265861,2.42900302 79.8942598,2.42900302 C70.5226586,2.42900302 62.9093656,10.0422961 62.9093656,19.4138973 C62.9093656,28.7854985 70.5226586,36.3987915 79.8942598,36.3987915 Z M87.6163142,11.9274924 C90.5891239,11.9274924 92.6555891,14.1752266 92.673716,16.8761329 C92.673716,18.9244713 91.3141994,20.7009063 90.1540785,22.3323263 L85.6404834,28.9305136 L88.0151057,32.0120846 L84.9154079,32.0120846 L77.7190332,22.6223565 C77.4833837,22.6404834 77.2477341,22.6404834 77.0120846,22.6404834 L75.5800604,22.6404834 L72.8429003,26.6465257 L78.9154079,26.6465257 L78.9154079,28.9486405 L68.6193353,28.9486405 L72.9154079,22.6586103 L70.4501511,22.6586103 L70.4501511,20.3746224 L74.4743202,20.3746224 L75.4531722,18.9607251 C76.0876133,18.0362538 76.6676737,17.1299094 76.6676737,16.223565 C76.6676737,15.0453172 76.0151057,14.2296073 74.6193353,14.2296073 C73.3141994,14.2296073 72.5528701,15.081571 72.5528701,16.2416918 L70.1057402,16.2416918 C70.1057402,13.9214502 72.0453172,11.9456193 74.6193353,11.9456193 C77.592145,11.9456193 79.1148036,13.7583082 79.1148036,16.1510574 C79.1148036,17.3111782 78.3534743,18.5438066 77.5196375,19.7945619 L77.1389728,20.3564955 L77.1933535,20.3564955 C80.6374622,20.3564955 82.6676737,18.489426 82.6676737,15.2265861 C82.6676737,11.9637462 80.6374622,10.0966767 77.1933535,10.0966767 L70.4501511,10.0966767 L70.4501511,7.81268882 L77.0120846,7.81268882 C81.163142,7.81268882 83.9003021,9.58912387 84.8066465,12.7250755 C85.6042296,12.2175227 86.5468278,11.9274924 87.6163142,11.9274924 Z M87.6163142,19.5770393 C89.1752266,19.5770393 90.1903323,18.3987915 90.1722054,16.8942598 C90.1722054,15.3897281 89.1570997,14.2114804 87.5981873,14.2114804 C86.2024169,14.2114804 85.2416918,15.1722054 85.060423,16.4592145 C85.060423,16.4954683 85.060423,16.5135952 85.060423,16.5317221 C85.0422961,16.6586103 85.0422961,16.7673716 85.0422961,16.8942598 C85.0422961,18.3987915 86.0574018,19.5770393 87.6163142,19.5770393 Z M84.1178248,26.9728097 L87.7613293,21.8429003 C87.7432024,21.8429003 87.652568,21.8429003 87.6344411,21.8429003 C85.9486405,21.8429003 84.5528701,21.1359517 83.6646526,20.0120846 C82.8670695,21.0090634 81.7613293,21.734139 80.4018127,22.1691843 L84.1178248,26.9728097 Z M39.3987915,54.326284 C39.1087613,54.5981873 38.7462236,54.81571 38.2930514,54.9607251 L42.407855,60 L39.7975831,60 L35.8821752,55.141994 L35.1208459,55.141994 L35.1208459,60 L33,60 L33,49.0151057 L37.0060423,49.0151057 C38.1299094,49.0151057 38.8549849,49.3232628 39.3987915,49.8308157 C39.9969789,50.3927492 40.3776435,51.1903323 40.3776435,52.0785498 C40.3776435,52.9667674 39.9969789,53.7643505 39.3987915,54.326284 Z M37.9486405,52.9305136 C38.1299094,52.7129909 38.2567976,52.4048338 38.2567976,52.0966767 C38.2567976,51.7703927 38.1299094,51.4441088 37.9486405,51.244713 C37.7673716,51.0453172 37.4954683,50.9003021 36.8791541,50.9003021 L35.1208459,50.9003021 L35.1208459,53.2567976 L36.8791541,53.2567976 C37.4954683,53.2567976 37.7673716,53.1299094 37.9486405,52.9305136 Z M45.978852,55.0513595 L45.978852,58.1148036 L50.6012085,58.1148036 L50.6012085,60 L43.858006,60 L43.858006,49.0151057 L50.4380665,49.0151057 L50.4380665,50.9003021 L45.978852,50.9003021 L45.978852,53.1661631 L49.3504532,53.1661631 L49.3504532,55.0513595 L45.978852,55.0513595 Z M53.3746224,60 L53.3746224,49.0151057 L59.9546828,49.0151057 L59.9546828,50.9003021 L55.4954683,50.9003021 L55.4954683,53.1661631 L58.8670695,53.1661631 L58.8670695,55.0513595 L55.4954683,55.0513595 L55.4954683,60 L53.3746224,60 Z M62.18429,49.0151057 L64.305136,49.0151057 L64.305136,60 L62.18429,60 L62.18429,49.0151057 Z M74.9456193,56.1752266 L74.9456193,49.0151057 L77.0664653,49.0151057 L77.0664653,60 L75.5800604,60 L69.4531722,52.8398792 L69.4531722,60 L67.3323263,60 L67.3323263,49.0151057 L68.8187311,49.0151057 L74.9456193,56.1752266 Z M82.4138973,55.0513595 L82.4138973,58.1148036 L87.0362538,58.1148036 L87.0362538,60 L80.2930514,60 L80.2930514,49.0151057 L86.8731118,49.0151057 L86.8731118,50.9003021 L82.4138973,50.9003021 L82.4138973,53.1661631 L85.7854985,53.1661631 L85.7854985,55.0513595 L82.4138973,55.0513595 Z M96.2084592,54.326284 C95.9003021,54.5981873 95.5558912,54.81571 95.102719,54.9607251 L99.2175227,60 L96.5891239,60 L92.6918429,55.141994 L91.9305136,55.141994 L91.9305136,60 L89.8096677,60 L89.8096677,49.0151057 L93.81571,49.0151057 C94.939577,49.0151057 95.6646526,49.3232628 96.2084592,49.8308157 C96.8066465,50.3927492 97.1873112,51.1903323 97.1873112,52.0785498 C97.1873112,52.9667674 96.8066465,53.7643505 96.2084592,54.326284 Z M94.7401813,52.9305136 C94.939577,52.7129909 95.0664653,52.4048338 95.0483384,52.0966767 C95.0483384,51.7703927 94.9214502,51.4441088 94.7401813,51.244713 C94.5589124,51.0453172 94.2870091,50.9003021 93.6706949,50.9003021 L91.9123867,50.9003021 L91.9123867,53.2567976 L93.6706949,53.2567976 C94.2870091,53.2567976 94.5589124,53.1299094 94.7401813,52.9305136 Z M103.622356,52.8761329 L106.015106,49.0151057 L108.425982,49.0151057 L104.673716,55.0332326 L104.673716,60 L102.55287,60 L102.55287,55.0332326 L98.7824773,49.0151057 L101.193353,49.0151057 L103.622356,52.8761329 Z M115.694864,55.305136 L113.392749,58.0785498 L117.29003,58.0785498 L117.29003,60 L109.187311,60 L113.900302,54.2537764 C114.697885,53.2386707 114.770393,52.6404834 114.770393,52.060423 C114.770393,51.2809668 114.099698,50.5558912 113.265861,50.5558912 C112.450151,50.5558912 111.761329,51.2809668 111.761329,52.060423 L109.640483,52.060423 C109.767372,50.0302115 111.344411,48.6344411 113.229607,48.6344411 L113.302115,48.6344411 C115.187311,48.6344411 116.891239,50.0845921 116.891239,52.0966767 C116.891239,53.4561934 116.456193,54.3081571 115.694864,55.305136 Z M122.782477,48.6344411 C124.830816,48.6344411 126.806647,50.1208459 126.806647,52.4773414 C126.806647,53.5830816 126.299094,54.5619335 125.719033,55.5589124 L123.126888,60 L120.78852,60 L122.873112,56.429003 L122.728097,56.429003 C120.643505,56.429003 118.885196,54.81571 118.885196,52.5679758 C118.885196,50.3927492 120.643505,48.6344411 122.782477,48.6344411 Z M122.836858,54.5256798 C123.924471,54.5256798 124.812689,53.6374622 124.812689,52.5498489 C124.812689,51.4622356 123.924471,50.5740181 122.836858,50.5740181 C121.749245,50.5740181 120.861027,51.4622356 120.861027,52.5498489 C120.861027,53.6374622 121.749245,54.5256798 122.836858,54.5256798 Z" id="Combined-Shape" fill="#AAA9AA" fill-rule="nonzero" mask="url(#mask-2)"></path>
                    </g>
                </g>
            </g>
        </g>
    </g>
</svg>