<svg height="72" viewBox="0 0 72 72" width="72" xmlns="http://www.w3.org/2000/svg">
  <g fill="none" fill-rule="evenodd" transform="matrix(.96592583 -.25881905 .25881905 .96592583 -8 10.634971)">
    <path d="m36 64.9453125-7.0232516 6.3629576-4.0536399-8.5662883-8.9236369 3.1909242-.4668984-9.4654792-9.46547924-.4668984 3.19092426-8.9236369-8.56628831-4.0536399 6.36295759-7.0232516-6.36295759-7.0232516 8.56628831-4.0536399-3.19092426-8.9236369 9.46547924-.4668984.4668984-9.46547924 8.9236369 3.19092426 4.0536399-8.56628831 7.0232516 6.36295759 7.0232516-6.36295759 4.0536399 8.56628831 8.9236369-3.19092426.4668984 9.46547924 9.4654792.4668984-3.1909242 8.9236369 8.5662883 4.0536399-6.3629576 7.0232516 6.3629576 7.0232516-8.5662883 4.0536399 3.1909242 8.9236369-9.4654792.4668984-.4668984 9.4654792-8.9236369-3.1909242-4.0536399 8.5662883z" fill="#0a3a13"></path>
    <text fill="#fff" font-family="Biotif" font-size="16" font-weight="bold" letter-spacing=".0888889">
      <tspan x="16.95156" y="41.775255">NEW</tspan>
    </text>
  </g>
</svg>
