<svg height="14" viewBox="0 0 17 14" width="17" xmlns="http://www.w3.org/2000/svg"><path d="m46.0458457 7.39434699c.0106448.14896163.0106448.29795602.0106448.44691766 0 4.54352635-3.458183 9.77873525-9.7787352 9.77873525-1.9472443 0-3.7561391-.5639777-5.2777553-1.5428731.2766664.0319016.5426553.0425464.8299665.0425464 1.6067091 0 3.085779-.5426553 4.2668928-1.4683922-1.5109715-.0319344-2.7772109-1.0215074-3.2134838-2.3835172.2128304.0319016.4256281.0531912.6491033.0531912.3085681 0 .6171689-.0425792.9044474-.1170272-1.5748075-.3192456-2.755954-1.7025123-2.755954-3.37309018v-.04254643c.4575297.25537684.9896057.41498327 1.5535178.43624011-.9257369-.61716889-1.5322283-1.67057788-1.5322283-2.86233647 0-.63842572.1702185-1.22366022.4681745-1.7344139 1.6918675 2.08556115 4.2349911 3.44753821 7.08665 3.5965326-.0531912-.25537684-.0851256-.52136572-.0851256-.78738736 0-1.89405309 1.5322611-3.43692617 3.4369262-3.43692617.989573 0 1.8833755.41498327 2.5111892 1.08534338.7767426-.14896163 1.5215835-.43627286 2.1813316-.82996654-.2554096.79806491-.7980649 1.46842502-1.5109715 1.89402033.6916497-.07444806 1.3620098-.26602163 1.979146-.53201052-.468109.68097216-1.0533763 1.2874635-1.7237364 1.77696034z" fill="#3eae5f" transform="translate(-31 -4)"/></svg>