<svg width="74" height="34" viewBox="0 0 282 128" xmlns="http://www.w3.org/2000/svg" aria-labelledby="title">
  <title>Yelp Logo Icon</title>
  <g fill="none" transform="translate(-1 -4)">
    <g fill="#e9e9e9">
      <path d="m4.92606787 24.6303394c-1.7783105-2.8472673-2.52214675-11.7930065-1.90638826-17.73877044.21182092-1.96057502.56157174-3.59602955 1.088661-4.56646492.70935377-1.35466867 1.9014622-2.1625438 3.26105693-2.20687841.86206188-.04433461 1.40885541.09852136 17.80280926 5.38419219 0 0 7.2856544 2.3152519 7.325063 2.3300301 1.8029408.46797645 3.0344578 2.13298739 3.1526834 4.26597478.1182256 2.1921002-1.019696 4.1181927-2.8718976 4.8176944 0 0-5.1428148 2.0985049-5.1428148 2.0985049-17.6254709 7.2708762-18.40871567 7.546736-19.30526002 7.5565881-1.35466867.0640389-2.5615553-.6305367-3.40391291-1.9408707" transform="matrix(1 0 0 -1 194.665818 85.688906)"></path>
      <path d="m29.5564072 4.92606788c.2906381.8275794.3201945 1.3940772.3645291 18.61561052 0 0 .0443346 7.6107748.0591128 7.694518.1083735 1.8522015-1.0935871 3.556621-3.0738664 4.3201615-2.034466.7881709-4.2265662.3054162-5.4630092-1.2315169 0 0-3.5861775-4.2561227-3.6009557-4.2610488-12.33979998-14.5072699-12.85703711-15.1673629-13.15260118-16.0343509-.18719058-.5024589-.2610816-1.0344742-.20196879-1.5763417.07881709-.7635405.41871577-1.5369332 1.00491785-2.2265827 2.85711937-3.41376503 16.58607052-8.4629846 20.96041882-7.71422228 1.522155.2758598 2.6354463 1.14284774 3.1034227 2.41377326" transform="matrix(1 0 0 -1 209.439096 120.131973)"></path>
      <path d="m19.7042715 4.92606788c4.1477492 1.65023273 13.1821576 13.13782302 13.8126943 17.55157982.216747 1.5418593-.2610816 2.8620454-1.3251122 3.7142552-.6847235.5221632-1.231517.724132-17.6008406 6.1033981 0 0-7.19698512 2.3743647-7.27580221 2.4137732-1.74875409.6797974-3.72903338.0541868-5.06399777-1.5960459-1.38915114-1.6896413-1.60589813-3.9112979-.48768072-5.6009392l2.89160184-4.7043948c9.72898406-15.80282578 10.46296816-16.91611712 11.16246976-17.46783672 1.083735-.84235761 2.4679601-.99506571 3.8866676-.4137897" transform="matrix(1 0 0 -1 247.123515 114.136947)"></path>
      <path d="m14.7782036 4.92606788c18.6205366 4.50242603 19.3348164 4.73887729 20.0737266 5.22163192 1.1280696.7684666 1.6847152 2.02954 1.5911199 3.5911035 0 .0541868.0049261.0985214 0 .1527081-.4827546 4.5664649-8.4876149 16.4629188-12.4333953 18.3939375-1.4039293.6650191-2.8029326.6206845-3.9556325-.1477821-.7192059-.4827546-1.2561473-1.1724041-11.21665653-14.8176122 0 0-4.50735211-6.1378805-4.56153885-6.1920673-1.18718236-1.43841179-1.20196057-3.51228637-.04926068-5.29059687 1.19703449-1.83742332 3.23642659-2.73396767 5.09848025-2.21673054 0 0-.08374316-.12807777-.09852136-.15763417.91132257.34975082 2.56648137.75368838 5.55167847 1.46304216" transform="matrix(1 0 0 -1 243.601377 73.467332)"></path>
      <path d="m34.4824751 9.85213575c-.3251205 7.37924965-2.5369249 40.23119635-2.7980065 41.74842525-.3793073 1.3891511-1.4581161 2.3694386-3.0098275 2.758598-4.7438034 1.1822563-22.91606775-3.916224-26.28057211-7.3891018-1.0738828-1.1231435-1.47782036-2.5172207-1.15762595-3.7487377.52708926-1.0837349 23.03429336-36.49723685 23.03429336-36.49723685 3.3300219-5.39897039 6.0442853-4.55661278 6.9309775-4.28075298s3.5861774 1.1182174 3.2807612 7.40880608" transform="matrix(1 0 0 -1 205.197751 63.019141)"></path>
    </g>
    <g fill="#bf2519">
      <path d="m4.92606788 24.6303394c-1.77338444-2.8423412-2.52214676-11.7930065-1.90638827-17.73384437.21674698-1.96057502.57142387-3.59602955 1.088661-4.57139099.70935377-1.3497426 1.9014622-2.15269166 3.26105693-2.20195234.87191401-.04433461 1.41378148.10344742 17.80773536 5.37434005 0 0 7.2856544 2.32510404 7.3152108 2.33988224 1.817719.46305038 3.0393839 2.13298739 3.1576095 4.26597481.1182256 2.1871741-1.0098439 4.1181927-2.8718976 4.8176944 0 0-5.1378888 2.0935788-5.1477409 2.0935788-17.6156187 7.2659501-18.40871564 7.551662-19.29540786 7.5615142-1.35959473.0541867-2.56648136-.6305367-3.40883896-1.9457968" transform="matrix(1 0 0 -1 196.153491 81.964799)"></path>
      <path d="m29.5564072 4.92606788c.285712.8275794.3201945 1.3940772.3694551 18.61561052 0 0 .0394086 7.6107748.0443347 7.6846659.1182256 1.8669797-1.088661 3.5664731-3.0640143 4.3250876-2.034466.7832447-4.2265662.3004901-5.4580832-1.231517 0 0-3.5960295-4.2659748-3.6058817-4.2659748-12.33979998-14.4974178-12.85703711-15.167363-13.15752725-16.0244988-.18226451-.5024589-.25615553-1.0443264-.19704272-1.5812678.07389102-.7684666.42364184-1.527081.99999178-2.2364348 2.86204544-3.39898683 16.58607049-8.4482064 20.97027099-7.69944408 1.5221549.2758598 2.6305202 1.13299561 3.0984966 2.41377326" transform="matrix(1 0 0 -1 210.931694 116.398012)"></path>
      <path d="m19.7042715 4.92606788c4.137897 1.65023273 13.1624534 13.13289692 13.7979161 17.55157982.2216731 1.5369332-.2610816 2.8620454-1.3201862 3.7093291-.6945755.5221632-1.2216648.724132-17.6057666 6.1033981 0 0-7.18713299 2.3743647-7.28072828 2.4186993-1.73890196.6748713-3.72410731.0492607-5.0590717-1.5960459-1.38915114-1.6896413-1.596046-3.9211501-.48768072-5.6058653l2.89160184-4.7093209c9.72405796-15.79297358 10.46789426-16.91119099 11.16739586-17.45798452 1.0837349-.85220975 2.4630339-.99013965 3.8965197-.4137897" transform="matrix(1 0 0 -1 248.625966 110.402989)"></path>
      <path d="m14.7782036 4.92606787c18.6205366 4.51227818 19.3397425 4.74872944 20.0737266 5.23148413 1.1280696.7586144 1.6945674 2.0295399 1.596046 3.5763252 0 .0492607.0098521.1034475 0 .1576342-.4778286 4.571391-8.4876149 16.4629188-12.4333953 18.3939375-1.3990033.6699452-2.7980066.6256106-3.9605586-.1527082-.7192059-.4679764-1.2462952-1.1773302-11.21665653-14.8126861 0 0-4.50242604-6.1329545-4.55661279-6.1920673-1.18718235-1.44333786-1.20688663-3.51228637-.04433461-5.2856708 1.20196056-1.83742332 3.23150053-2.73396767 5.09355419-2.21673054 0 0-.07389102-.13300384-.09359529-.15763418.91624863.34482476 2.55662923.74876232 5.54182633 1.45811609" transform="matrix(1 0 0 -1 245.084123 69.743223)"></path>
      <path d="m34.4824751 9.85213575c-.3201944 7.37924965-2.541851 40.23612245-2.8029326 41.75827735-.3743812 1.379299-1.45319 2.3645126-2.9999753 2.753672-4.7536555 1.1773302-22.92099385-3.9112979-26.28549821-7.3841758-1.08373494-1.1280695-1.48274643-2.5172207-1.15762595-3.7487376.53201533-1.088661 23.03921946-36.50216298 23.03921946-36.50216298 3.3250958-5.39404433 6.0393592-4.55661279 6.9309775-4.27582692.8817661.27093373 3.5812513 1.10836527 3.2758351 7.39895395" transform="matrix(1 0 0 -1 206.69035 59.295035)"></path>
    </g>
    <g fill="#231f20">
      <path d="m9.85213575 4.92606788c2.34480835-2.17239594 6.78812155-2.78815442 12.18709195-1.68964129 5.0590717.99999178 8.1969769 3.26105694 11.2166565 12.86196321l15.0392852 47.2508431c.7783188 2.5073685.719206 4.6846905-.1724123 6.3004408-.724132 1.3004819-1.9310186 2.1822481-3.6354381 2.6354463-2.6797809.7339841-6.024581.6600931-8.1329381-6.5418181l-7.8915607-26.8027353s-16.0737595 30.3642823-16.0836116 30.3692084c-1.01477 2.02954-3.99011501 3.48273-7.01964675 2.2807694-3.95070644-1.5024507-5.26596656-5.0541456-3.68962484-9.6304627 0 0 19.55156339-39.7878502 19.59589799-39.8962237 0 0 .5320153-1.4187075.5320153-1.6502327 0 0 .1773385-1.0788089.1773385-1.1182174-.0394086-1.5320071-.5517196-2.8226369-1.4679682-3.6846988-.9014705-.8472837-2.1526917-1.2906298-3.6157339-1.231517 0 0-3.049236.068965-3.2807612.068965-3.1329791-.3842333-5.10340628-2.1822481-5.41867462-4.96055037-.22167306-1.78816264.35467688-3.35957829 1.66008487-4.56153885" transform="matrix(1 0 0 -1 .770861 132.250099)"></path>
      <path d="m34.4824751 34.4824751h-20.9357884c-.5664978.4137897-.8423577 1.1083653-.4187158 3.1970181.2660077 1.0985131.5517196 2.0837267 1.3891511 3.4630257.2709338.4137897.5517196.8374315.8226534 1.2610734 1.5320071 1.9359446 3.6058816 3.1773137 5.9654682 3.7290333 7.3595454 1.7980148 12.4925081-1.9408707 13.3250136-8.3201286.3990115-2.7832283.1379299-3.3300219-.1477821-3.3300219zm12.8668893 3.6452903c-.6748713 6.82753-3.3103176 12.1575355-7.6304791 15.4235185-4.6009474 3.4925821-11.1132091 4.6058734-18.8225054 3.2265744-9.6649451-1.6748631-15.4678531-8.5812102-16.79789143-19.9998355-1.63545453-13.6501341.61083242-23.9357638 6.51718783-29.75345001 4.4531653-4.39897861 11.0393181-6.14773271 19.0491044-5.06399778 11.4235514 1.60589813 16.5614402 7.87678254 16.5614402 11.84226719 0 2.9162322-1.7635323 5.2117798-4.354644 5.5615306-1.4827464.2955641-2.7339676 0-5.5024178-2.4778121-3.990115-3.4778039-8.6156927-4.8768072-12.7141812-3.8374069-3.123127.7930969-5.5615306 2.9457886-6.6649698 5.8965032 0 0-.4926068 1.9507229-.4630504 1.7339759-.3349726 1.7586063-.4876807 3.5024343.5960542 4.2117881l.290638.1970427h25.0933898c2.3152519 0 3.487656.3004901 4.1625273 1.0295482 1.3792991 1.5320071 1.2709256 5.9063554.6797974 12.0097535z" transform="matrix(1 0 0 -1 53.179297 117.003919)"></path>
      <path d="m9.85213575 73.8910181c-1.98520535.8078752-4.22656624.5911282-6.19206732-.581276-1.89161006-1.1182174-2.67978092-2.8226369-2.67978092-5.9014293v-59.83202041s.33004654-2.13791346.36452902-2.23150875c.42364184-1.49259856 1.52708104-2.76352407 3.05908815-3.45809964 1.69949342-.78817086 3.66006843-.77339266 5.41374859.04926067 2.18224803.94580504 3.46795183 3.12805311 3.46795183 5.83246437v59.94531996s-.3793073 2.8965279-.3793073 2.9507147c-.3497508 1.3891511-1.4975246 2.5911117-3.05416205 3.2265744" transform="matrix(1 0 0 -1 113.425107 116.659094)"></path>
      <path d="m29.5564073 29.5564073c-8.2856462 0-9.6058324 7.3546193-9.866914 12.9062978-.0147782.0147782-.1083735 3.2512048-.1083735 3.2512048s.0935953 2.4039211.0935953 2.4975164c.5369414 9.6058323 2.5221467 13.3939785 7.5910706 14.4481571 3.4039129.7881708 6.0048767.4039375 7.9555996-1.1674781 2.9310104-2.3595865 4.2216402-7.3546194 4.1034145-15.6895262-.0837431-9.7585405-1.7832365-16.2461718-9.7683925-16.2461718zm.6157584 43.9306733c-5.5516785 1.1329956-10.3004079.1822645-14.8668728-2.9113062 0 0-.5123111-.4137897-.7093538-.5320153l-.4088636-.2068948-1.2512213-.5615718-.3546768 1.4039294-.3004902.507385-.1034474.3152683-.0344825.0935953s-.3054162.4088636-.3497508.4729025c-1.3103341 2.0393921-4.87188114 2.975345-8.08367739 1.1428478-1.57141565-.8916183-2.47288607-2.1477656-2.47288607-5.8965033v-58.72365513c0-3.21672232 1.00984391-5.21670588 3.21672232-6.2708844 1.86205366-.9359529 3.9556325-1.00984392 5.75364724-.23645126 1.5270811.66994523 2.6502246 1.85220152 3.0689403 3.29061334l.3694551 2.51722069v10.16247806l-.1083735 1.6354545.0443346.4827546.0640389.2315252.6059064 1.9359447 1.8374233-1.2216648s.4630504-.3054162.6600931-.5123111l.5517196-.364529c.004926-.0049261.6403888-.3743812.6403888-.3743812.0098521 0 .5911281-.2857119.5911281-.2857119 4.9260679-2.325104 11.5171467-2.0541703 16.8225218.6797974 6.6797481 3.487656 9.9802136 9.6747973 10.7437541 20.0638744 1.596046 20.7633761-3.1822399 30.6844768-15.9259775 33.162289z" transform="matrix(1 0 0 -1 141.0702 133.097383)"></path>
      <path d="m4.92606787 4.92606788h.68472344c.55664567 0 1.07880886.0295564 1.07880886.65516702 0 .56157174-.47782858.62068455-.90639648.62068455h-.85713582zm-.56157173 1.7783105h1.46796822c.96058324 0 1.40885542-.34975082 1.40885542-1.14777382 0-.71920591-.45812432-1.01969605-1.0591046-1.08373493l1.15762595-1.76845837h-.60590634l-1.09358707 1.71919769h-.71427985v-1.71919769h-.56157173zm1.29555585-4.92606788c1.62067633 0 2.92608432 1.27585158 2.92608432 2.96549286 0 1.66008488-1.30540799 2.94086253-2.92608432 2.94086253-1.6256024 0-2.93101039-1.28077765-2.93101039-2.975345 0-1.65515881 1.30540799-2.93101039 2.93101039-2.93101039zm0 6.40388824c1.89161006 0 3.48272999-1.4876725 3.48272999-3.43839538 0-1.98520535-1.59111993-3.46795178-3.48272999-3.46795178-1.89653613 0-3.48272999 1.48274643-3.48272999 3.43346931 0 1.98520535 1.58619386 3.47287785 3.48272999 3.47287785z" transform="matrix(1 0 0 -1 192.059928 113.063065)"></path>
    </g>
  </g>
</svg>
