<svg height="18" viewBox="0 0 14 18" width="14" xmlns="http://www.w3.org/2000/svg"><path d="m72.7847609 11.1953537c-.034988.0104964-3.8206799 1.2490685-4.0516002 1.2490685-.5318162-.0314891-.6472763-.5668042-.6962594-1.0916229-.0524819-.4968283-.0489831-1.0426397.0104964-1.6374342.066477-.65777273.1924335-1.57795479.8467074-1.53946809.167942 0 2.3476889.9061869 3.9431376 1.55346326.5982933.23791779.6507752 1.25256723-.0524818 1.46599343zm2.0258-3.98512304c.0629783 1.33653821-.8921917 1.69691369-1.6514294.50032713l-3.7192149-5.87796907c-.0524819-.23092022.0104963-.4338501.1854359-.60878966.5458114-.57730053 3.4777983-1.39251886 4.2510312-1.19308777.2624093.06647703.4233537.21342626.4828332.44084768.0454842.29039966.4023609 5.85697633.451344 6.73867169zm-.0489831 5.76600774c0 .1609444.0069976 4.0725929-.0594794 4.2510312-.0804722.2099275-.2449154.3393828-.5003271.3918646-.3533779.0594795-.9481724-.066477-1.7843835-.3743706-.7697341-.2834021-1.9838146-.7522401-1.724904-1.4869862.0979661-.2414166 1.7983786-2.1972409 2.7045655-3.2748685.4198549-.5318163 1.3925189-.1924335 1.3645285.4933295zm6.3048216-4.12157591c-.1959323.12945527-3.8766605.98665909-4.1320723 1.07063008l.0104964-.02099275c-.6332812.16444318-1.2385721-.64727636-.8152183-1.21058172.1294552-.12945528 2.3057033-3.232883 2.5471199-3.39382739.1819371-.12595648.3953634-.13295406.6402788-.02099274.6437775.30789361 1.9278339 2.20773719 2.0083061 2.95997728-.0034988.10146494.0419855.40935856-.2589106.61578724zm.3533779 4.57292001c-.0944673.7207509-1.556962 2.5681127-2.2322287 2.8340208-.2414166.0909685-.4513441.0699758-.619286-.0699758-.1749396-.1224577-2.1622529-3.3973262-2.2707155-3.5792634-.3813682-.5668041.2379178-1.3925188.8956906-1.1615986 0 0 3.8661641 1.2490684 4.0131134 1.3785237.1819371.1434504.2519129.3428815.2134262.5982933z" fill="#3eae5f" transform="translate(-68)"/></svg>